<?xml version="1.0" encoding="UTF-8" standalone="no"?>
<!-- Created with Inkscape (http://www.inkscape.org/) -->

<svg
   xmlns:dc="http://purl.org/dc/elements/1.1/"
   xmlns:cc="http://creativecommons.org/ns#"
   xmlns:rdf="http://www.w3.org/1999/02/22-rdf-syntax-ns#"
   xmlns:svg="http://www.w3.org/2000/svg"
   xmlns="http://www.w3.org/2000/svg"
   xmlns:sodipodi="http://sodipodi.sourceforge.net/DTD/sodipodi-0.dtd"
   xmlns:inkscape="http://www.inkscape.org/namespaces/inkscape"
   width="793.70081"
   height="1122.5197"
   viewBox="0 0 793.70081 1122.5197"
   version="1.1"
   id="svg8"
   inkscape:version="0.92.5 (2060ec1f9f, 2020-04-08)"
   sodipodi:docname="rysunek.svg"
   inkscape:export-filename="ruthie.png"
   inkscape:export-xdpi="96"
   inkscape:export-ydpi="96">
  <title
     id="title877">Ruthie</title>
  <defs
     id="defs2" />
  <sodipodi:namedview
     id="base"
     pagecolor="#ffffff"
     bordercolor="#666666"
     borderopacity="1.0"
     inkscape:pageopacity="1"
     inkscape:pageshadow="2"
     inkscape:zoom="1"
     inkscape:cx="427.42477"
     inkscape:cy="546.15389"
     inkscape:document-units="px"
     inkscape:current-layer="layer1"
     showgrid="false"
     units="px"
     inkscape:window-width="2560"
     inkscape:window-height="1391"
     inkscape:window-x="0"
     inkscape:window-y="25"
     inkscape:window-maximized="1"
     showguides="true"
     inkscape:guide-bbox="true"
     inkscape:snap-global="false" />
  <metadata
     id="metadata5">
    <rdf:RDF>
      <cc:Work
         rdf:about="">
        <dc:format>image/svg+xml</dc:format>
        <dc:type
           rdf:resource="http://purl.org/dc/dcmitype/StillImage" />
        <dc:title>Ruthie</dc:title>
        <dc:date>2021-03-08</dc:date>
        <dc:creator>
          <cc:Agent>
            <dc:title>Marek Sierociński</dc:title>
          </cc:Agent>
        </dc:creator>
        <cc:license
           rdf:resource="http://creativecommons.org/licenses/by-sa/4.0/" />
      </cc:Work>
      <cc:License
         rdf:about="http://creativecommons.org/licenses/by-sa/4.0/">
        <cc:permits
           rdf:resource="http://creativecommons.org/ns#Reproduction" />
        <cc:permits
           rdf:resource="http://creativecommons.org/ns#Distribution" />
        <cc:requires
           rdf:resource="http://creativecommons.org/ns#Notice" />
        <cc:requires
           rdf:resource="http://creativecommons.org/ns#Attribution" />
        <cc:permits
           rdf:resource="http://creativecommons.org/ns#DerivativeWorks" />
        <cc:requires
           rdf:resource="http://creativecommons.org/ns#ShareAlike" />
      </cc:License>
    </rdf:RDF>
  </metadata>
  <g
     inkscape:label="Layer 1"
     inkscape:groupmode="layer"
     id="layer1">
    <g
       id="g1108">
      <g
         id="g1048">
        <path
           style="color:#000000;font-style:normal;font-variant:normal;font-weight:normal;font-stretch:normal;font-size:medium;line-height:normal;font-family:sans-serif;font-variant-ligatures:normal;font-variant-position:normal;font-variant-caps:normal;font-variant-numeric:normal;font-variant-alternates:normal;font-feature-settings:normal;text-indent:0;text-align:start;text-decoration:none;text-decoration-line:none;text-decoration-style:solid;text-decoration-color:#000000;letter-spacing:normal;word-spacing:normal;text-transform:none;writing-mode:lr-tb;direction:ltr;text-orientation:mixed;dominant-baseline:auto;baseline-shift:baseline;text-anchor:start;white-space:normal;shape-padding:0;clip-rule:nonzero;display:inline;overflow:visible;visibility:visible;opacity:1;isolation:auto;mix-blend-mode:normal;color-interpolation:sRGB;color-interpolation-filters:linearRGB;solid-color:#000000;solid-opacity:1;vector-effect:none;fill:#382f29;fill-opacity:1;fill-rule:nonzero;stroke:none;stroke-width:17.16353989;stroke-linecap:butt;stroke-linejoin:miter;stroke-miterlimit:4;stroke-dasharray:none;stroke-dashoffset:0;stroke-opacity:1;color-rendering:auto;image-rendering:auto;shape-rendering:auto;text-rendering:auto;enable-background:accumulate"
           d="m 301.88072,408.79564 c -5.20891,-0.25808 -10.80161,0.14201 -16.57544,1.15259 -11.54767,2.02133 -23.75661,6.74394 -32.66056,16.2315 -14.97383,15.95523 -20.13218,30.24166 -22.46649,42.32041 -2.33431,12.07875 -2.45441,21.06356 -7.56688,30.99937 -3.88824,7.55656 -10.37807,14.94855 -17.31092,19.2502 -6.93282,4.30163 -13.65248,5.73544 -20.21251,3.12114 -4.56805,-1.82044 -17.08854,2.16057 -9.70377,13.4433 7.38314,11.28024 23.9518,12.76111 39.71884,8.07916 15.76706,-4.68196 32.05711,-17.70765 41.64351,-41.23003 4.68298,-11.49074 5.76796,-22.83741 7.36929,-32.66055 1.60135,-9.82317 3.60367,-17.86247 8.51825,-24.29236 4.02043,-5.26003 11.72643,-9.76626 19.8832,-12.6383 8.15677,-2.87206 16.71388,-4.19063 20.9736,-4.39085 l 2.66379,-16.59007 c -4.23794,-1.62042 -9.06499,-2.53743 -14.27391,-2.79551 z"
           id="path896"
           inkscape:connector-curvature="0"
           sodipodi:nodetypes="sccscssssscscccs" />
        <path
           sodipodi:nodetypes="sccccccsccs"
           inkscape:connector-curvature="0"
           id="path881"
           d="m 308.70067,302.91131 c -1.86971,0 -3.73956,0.70181 -5.67809,2.10626 -2.15898,1.56444 -3.43718,4.06901 -3.43727,6.73521 v 324.38113 c 9e-5,2.66621 1.27829,5.17077 3.43727,6.73522 3.877,2.80894 7.47915,2.80901 11.35619,0 L 537.43051,481.25758 c 1.93859,-1.40458 3.76885,-4.17238 3.76885,-7.31345 0,-3.14104 -1.83021,-5.90884 -3.76885,-7.31342 L 314.37877,305.01757 c -1.93855,-1.40449 -3.80836,-2.10626 -5.6781,-2.10626 z"
           style="color:#000000;font-style:normal;font-variant:normal;font-weight:normal;font-stretch:normal;font-size:medium;line-height:normal;font-family:sans-serif;font-variant-ligatures:normal;font-variant-position:normal;font-variant-caps:normal;font-variant-numeric:normal;font-variant-alternates:normal;font-feature-settings:normal;text-indent:0;text-align:start;text-decoration:none;text-decoration-line:none;text-decoration-style:solid;text-decoration-color:#000000;letter-spacing:normal;word-spacing:normal;text-transform:none;writing-mode:lr-tb;direction:ltr;text-orientation:mixed;dominant-baseline:auto;baseline-shift:baseline;text-anchor:start;white-space:normal;shape-padding:0;clip-rule:nonzero;display:inline;overflow:visible;visibility:visible;opacity:1;isolation:auto;mix-blend-mode:normal;color-interpolation:sRGB;color-interpolation-filters:linearRGB;solid-color:#000000;solid-opacity:1;vector-effect:none;fill:none;fill-opacity:1;fill-rule:nonzero;stroke:#382f29;stroke-width:17.34055901;stroke-linecap:round;stroke-linejoin:round;stroke-miterlimit:4;stroke-dasharray:none;stroke-dashoffset:0;stroke-opacity:1;color-rendering:auto;image-rendering:auto;shape-rendering:auto;text-rendering:auto;enable-background:accumulate" />
        <path
           style="color:#000000;font-style:normal;font-variant:normal;font-weight:normal;font-stretch:normal;font-size:medium;line-height:normal;font-family:sans-serif;font-variant-ligatures:normal;font-variant-position:normal;font-variant-caps:normal;font-variant-numeric:normal;font-variant-alternates:normal;font-feature-settings:normal;text-indent:0;text-align:start;text-decoration:none;text-decoration-line:none;text-decoration-style:solid;text-decoration-color:#000000;letter-spacing:normal;word-spacing:normal;text-transform:none;writing-mode:lr-tb;direction:ltr;text-orientation:mixed;dominant-baseline:auto;baseline-shift:baseline;text-anchor:start;white-space:normal;shape-padding:0;clip-rule:nonzero;display:inline;overflow:visible;visibility:visible;opacity:1;isolation:auto;mix-blend-mode:normal;color-interpolation:sRGB;color-interpolation-filters:linearRGB;solid-color:#000000;solid-opacity:1;vector-effect:none;fill:#b5b535;fill-opacity:1;fill-rule:nonzero;stroke:none;stroke-width:16.63430786;stroke-linecap:round;stroke-linejoin:round;stroke-miterlimit:4;stroke-dasharray:none;stroke-dashoffset:0;stroke-opacity:1;color-rendering:auto;image-rendering:auto;shape-rendering:auto;text-rendering:auto;enable-background:accumulate"
           d="m 308.70067,302.91131 c -1.86971,0 -3.73956,0.70181 -5.67809,2.10626 -2.15898,1.56444 -3.43718,4.06901 -3.43727,6.73521 v 324.38113 c 9e-5,2.66621 1.27829,5.17077 3.43727,6.73522 3.877,2.80894 7.47915,2.80901 11.35619,0 L 537.43051,481.25758 c 1.93859,-1.40458 3.76885,-4.17238 3.76885,-7.31345 0,-3.14104 -1.83021,-5.90884 -3.76885,-7.31342 L 314.37877,305.01757 c -1.93855,-1.40449 -3.80836,-2.10626 -5.6781,-2.10626 z"
           id="path1151"
           inkscape:connector-curvature="0"
           sodipodi:nodetypes="sccccccsccs" />
        <path
           sodipodi:nodetypes="ssssssssssccccss"
           inkscape:connector-curvature="0"
           id="path892"
           d="m 436.4505,533.02846 c -7.50019,1.95619 -43.79329,-4.20731 -57.64333,-22.24541 -20.65634,-26.90256 -52.26788,-54.81679 -50.4269,-89.25453 1.33446,-24.96274 22.27938,-47.0176 45.82832,-55.4061 28.44459,-10.13243 61.69209,-5.72075 85.28521,13.12407 12.5277,10.00644 16.35919,23.7765 17.83422,36.50048 0.062,0.53588 0.47249,1.05319 0.51341,1.59062 0.71445,9.38558 -1.73348,18.98122 -4.81954,27.88268 -2.32352,6.70196 -9.85314,12.00134 -10.98074,19.00447 -1.78985,11.11611 3.66907,31.75151 1.87639,32.78692 -4.42638,2.55655 -6.63808,1.9085 -11.43744,1.0935 -0.31474,1.66759 -0.4719,3.6574 -0.58631,5.3751 -0.1658,3.0133 -0.6371,5.29987 -3.39337,4.50985 -0.37686,1.85143 -1.817,3.70286 -4.05655,5.5543 0,0 -3.31003,3.39354 -3.92496,5.58401 -1.26858,4.51867 -0.15475,12.87928 -4.06841,13.90004 z"
           style="opacity:1;fill:none;fill-opacity:1;stroke:#382f29;stroke-width:17.16353989;stroke-linecap:butt;stroke-linejoin:miter;stroke-miterlimit:4;stroke-dasharray:none;stroke-opacity:1" />
        <path
           sodipodi:nodetypes="ccccc"
           inkscape:connector-curvature="0"
           id="path885"
           d="m 367.65738,481.88344 c -2.23223,26.17192 -16.86277,41.27391 -30.28175,57.45768 l 51.55663,39.44394 c 4.07395,-23.87844 12.61316,-43.29162 23.29367,-60.56353 z"
           style="fill:none;fill-opacity:1;stroke:#382f29;stroke-width:16.99360466;stroke-linecap:butt;stroke-linejoin:miter;stroke-miterlimit:4;stroke-dasharray:none;stroke-opacity:1" />
        <path
           sodipodi:nodetypes="ccccccccccc"
           style="color:#000000;font-style:normal;font-variant:normal;font-weight:normal;font-stretch:normal;font-size:medium;line-height:normal;font-family:sans-serif;font-variant-ligatures:normal;font-variant-position:normal;font-variant-caps:normal;font-variant-numeric:normal;font-variant-alternates:normal;font-feature-settings:normal;text-indent:0;text-align:start;text-decoration:none;text-decoration-line:none;text-decoration-style:solid;text-decoration-color:#000000;letter-spacing:normal;word-spacing:normal;text-transform:none;writing-mode:lr-tb;direction:ltr;text-orientation:mixed;dominant-baseline:auto;baseline-shift:baseline;text-anchor:start;white-space:normal;shape-padding:0;clip-rule:nonzero;display:inline;overflow:visible;visibility:visible;opacity:1;isolation:auto;mix-blend-mode:normal;color-interpolation:sRGB;color-interpolation-filters:linearRGB;solid-color:#000000;solid-opacity:1;vector-effect:none;fill:#c4c439;fill-opacity:1;fill-rule:nonzero;stroke:none;stroke-width:16.63430786;stroke-linecap:round;stroke-linejoin:round;stroke-miterlimit:4;stroke-dasharray:none;stroke-dashoffset:0;stroke-opacity:1;color-rendering:auto;image-rendering:auto;shape-rendering:auto;text-rendering:auto;enable-background:accumulate"
           d="m 308.70148,302.91131 c -1.86972,0 -3.74032,0.70113 -5.67883,2.10557 -2.15897,1.56444 -3.43682,4.06962 -3.43691,6.73583 v 324.38147 c 4e-5,1.49405 0.41337,2.93034 1.1462,4.18589 l 6.08234,-327.81233 c -0.16842,-5.13803 4.25663,-7.47657 7.37583,-7.44877 0.0892,8.6e-4 0.17854,0.0112 0.26762,0.015 l -0.0792,-0.0571 c -1.93855,-1.40449 -3.80741,-2.10558 -5.67714,-2.10558 z"
           id="path1197"
           inkscape:connector-curvature="0" />
        <path
           style="color:#000000;font-style:normal;font-variant:normal;font-weight:normal;font-stretch:normal;font-size:medium;line-height:normal;font-family:sans-serif;font-variant-ligatures:normal;font-variant-position:normal;font-variant-caps:normal;font-variant-numeric:normal;font-variant-alternates:normal;font-feature-settings:normal;text-indent:0;text-align:start;text-decoration:none;text-decoration-line:none;text-decoration-style:solid;text-decoration-color:#000000;letter-spacing:normal;word-spacing:normal;text-transform:none;writing-mode:lr-tb;direction:ltr;text-orientation:mixed;dominant-baseline:auto;baseline-shift:baseline;text-anchor:start;white-space:normal;shape-padding:0;clip-rule:nonzero;display:inline;overflow:visible;visibility:visible;opacity:1;isolation:auto;mix-blend-mode:normal;color-interpolation:sRGB;color-interpolation-filters:linearRGB;solid-color:#000000;solid-opacity:1;vector-effect:none;fill:#382f29;fill-opacity:1;fill-rule:nonzero;stroke:none;stroke-width:17.16353989;stroke-linecap:butt;stroke-linejoin:miter;stroke-miterlimit:4;stroke-dasharray:none;stroke-dashoffset:0;stroke-opacity:1;color-rendering:auto;image-rendering:auto;shape-rendering:auto;text-rendering:auto;enable-background:accumulate"
           d="m 272.09981,396.46103 c -10.33159,-0.30145 -20.8362,1.65776 -30.63345,6.75457 -16.27689,8.46772 -23.61706,22.83082 -31.97632,35.97201 -8.35927,13.14117 -17.65533,25.9763 -38.14547,36.72574 -8.18916,4.29616 -18.81634,5.53022 -28.12336,4.15301 -9.307,-1.37723 -16.33433,-6.15287 -19.38191,-9.05978 -8.9976,-8.58224 -16.61432,0.0131 -15.36429,6.59726 2.84648,14.99358 16.9198,24.97937 33.78023,29.89798 16.86041,4.91861 37.84076,4.24893 56.46259,-7.19733 21.39412,-13.1503 32.53386,-25.65741 39.86887,-37.27828 7.33501,-11.62084 10.88687,-21.42979 18.30982,-30.99935 6.54673,-8.43997 16.33865,-10.38892 27.20493,-9.78792 10.86629,0.60099 21.21647,4.04019 26.58292,5.60565 l 7.50469,-15.14109 c -12.13653,-8.96501 -28.86991,-15.74007 -46.08925,-16.24247 z m -30.60051,27.69525 c -7.75275,10.74714 -11.68802,20.61386 -17.42801,29.70772 -6.21575,9.84765 -14.73064,19.76568 -34.34004,31.81899 -2.21623,1.36224 -4.53885,2.19513 -6.83509,3.16506 21.16111,-12.14576 32.76367,-27.38272 41.07635,-40.45066 6.42544,-10.10112 11.17903,-18.29193 17.52679,-24.24111 z"
           id="path898"
           inkscape:connector-curvature="0"
           sodipodi:nodetypes="ccsscssssscscccccccsc" />
        <path
           style="color:#000000;font-style:normal;font-variant:normal;font-weight:normal;font-stretch:normal;font-size:medium;line-height:normal;font-family:sans-serif;font-variant-ligatures:normal;font-variant-position:normal;font-variant-caps:normal;font-variant-numeric:normal;font-variant-alternates:normal;font-feature-settings:normal;text-indent:0;text-align:start;text-decoration:none;text-decoration-line:none;text-decoration-style:solid;text-decoration-color:#000000;letter-spacing:normal;word-spacing:normal;text-transform:none;writing-mode:lr-tb;direction:ltr;text-orientation:mixed;dominant-baseline:auto;baseline-shift:baseline;text-anchor:start;white-space:normal;shape-padding:0;clip-rule:nonzero;display:inline;overflow:visible;visibility:visible;opacity:1;isolation:auto;mix-blend-mode:normal;color-interpolation:sRGB;color-interpolation-filters:linearRGB;solid-color:#000000;solid-opacity:1;vector-effect:none;fill:#382f29;fill-opacity:1;fill-rule:nonzero;stroke:none;stroke-width:17.16353989;stroke-linecap:butt;stroke-linejoin:miter;stroke-miterlimit:4;stroke-dasharray:none;stroke-dashoffset:0;stroke-opacity:1;color-rendering:auto;image-rendering:auto;shape-rendering:auto;text-rendering:auto;enable-background:accumulate"
           d="m 344.81587,410.22997 -31.93974,0.79769 c -7.93516,0.19789 -16.2082,3.73777 -24.22648,10.08063 -8.01831,6.34288 -15.37542,16.43606 -15.19964,29.36377 0.16711,12.28788 4.03384,21.64872 6.52039,29.64552 2.48656,7.9968 3.95385,14.4605 1.63559,24.14233 -2.93781,12.26937 -15.31965,24.65113 -29.15886,25.26931 -9.23416,0.41247 -11.34461,13.21026 -2.68939,16.56812 12.83885,4.98093 26.96636,3.71444 38.81141,-1.64291 11.84504,-5.35734 21.9394,-15.17713 24.83023,-28.44901 2.78172,-12.77099 0.43578,-25.03331 -2.22104,-36.3818 -2.65682,-11.34849 -5.66586,-21.99179 -5.97521,-31.41284 -0.4279,-13.03141 12.36754,-21.28462 12.36754,-21.28462 z"
           id="path894"
           inkscape:connector-curvature="0"
           sodipodi:nodetypes="ccsccssssssccc" />
        <path
           style="opacity:1;fill:#704931;fill-opacity:1;stroke:none;stroke-width:0.87845892px;stroke-linecap:butt;stroke-linejoin:miter;stroke-opacity:1"
           d="m 313.08858,419.60715 c -17.07541,-12.61326 -45.60939,-20.25296 -67.66307,-8.78 -27.27818,14.1909 -25.87504,49.48863 -70.09288,72.686 -20.38354,10.69352 -49.13026,5.22514 -58.41295,-7.42922 3.46569,19.24762 44.73673,36.92867 77.30438,16.91033 41.00353,-25.2036 39.3133,-44.85147 55.8933,-66.2262 17.51916,-22.58551 53.38144,-9.95835 62.97122,-7.16091 z"
           id="path853"
           inkscape:connector-curvature="0"
           sodipodi:nodetypes="csscssc" />
        <path
           style="opacity:1;fill:#704931;fill-opacity:1;stroke:none;stroke-width:0.87845892px;stroke-linecap:butt;stroke-linejoin:miter;stroke-opacity:1"
           d="m 313.08858,419.60715 c -12.12535,-4.63625 -39.95284,-2.72411 -54.18798,12.44403 -27.964,29.79682 -16.60607,47.94918 -28.65972,71.37477 -9.15817,17.79842 -29.21853,33.69205 -48.20543,26.46358 10.14538,12.43544 49.26942,11.95842 66.76288,-30.96566 8.17721,-20.06463 4.41307,-42.43571 17.0169,-58.92565 11.23543,-14.6996 36.61516,-19.8901 47.27335,-20.39107 z"
           id="path851"
           inkscape:connector-curvature="0"
           sodipodi:nodetypes="csscssc" />
        <path
           style="opacity:1;fill:#704931;fill-opacity:1;stroke:none;stroke-width:0.87845892px;stroke-linecap:butt;stroke-linejoin:miter;stroke-opacity:1"
           d="m 313.08858,419.60715 c -9.30251,0.232 -31.32033,11.4702 -31.05822,30.74762 0.28617,21.04735 13.43114,32.88773 7.91986,55.90478 -3.83543,16.0181 -18.81859,30.93635 -37.08012,31.83925 20.59655,8.01854 47.79288,-3.94625 52.14333,-23.91939 4.61998,-21.21048 -7.66795,-43.82916 -8.38572,-65.68814 -0.60508,-18.42768 16.46087,-28.88412 16.46087,-28.88412 z"
           id="path847"
           inkscape:connector-curvature="0"
           sodipodi:nodetypes="csscssc" />
        <path
           style="fill:#f2d7bc;fill-opacity:1;stroke:none;stroke-width:0.87845892px;stroke-linecap:butt;stroke-linejoin:miter;stroke-opacity:1"
           d="m 367.65738,481.88344 c -2.23223,26.17192 -16.86277,41.27391 -30.28175,57.45768 l 51.55663,39.44394 c 4.07395,-23.87844 12.61316,-43.29162 23.29367,-60.56353 z"
           id="path948"
           inkscape:connector-curvature="0"
           sodipodi:nodetypes="ccccc" />
        <path
           style="fill:#edcaa6;fill-opacity:1;stroke-width:0.87845892"
           d="m 370.23497,499.19313 28.81758,44.52859 c 2.23807,-5.38082 4.7058,-10.53063 7.37426,-15.4811 z"
           id="path1131"
           inkscape:connector-curvature="0" />
        <path
           style="opacity:1;fill:#f2d7bc;fill-opacity:1;stroke:none;stroke-width:0.87845892px;stroke-linecap:butt;stroke-linejoin:miter;stroke-opacity:1"
           d="m 436.4505,533.02846 c -7.50019,1.95619 -43.79329,-4.20731 -57.64333,-22.24541 -20.65634,-26.90256 -52.26788,-54.81679 -50.4269,-89.25453 1.33446,-24.96274 22.27938,-47.0176 45.82832,-55.4061 28.44459,-10.13243 61.69209,-5.72075 85.28521,13.12407 12.5277,10.00644 16.35919,23.7765 17.83422,36.50048 0.062,0.53588 0.47249,1.05319 0.51341,1.59062 0.71445,9.38558 -1.73348,18.98122 -4.81954,27.88268 -2.32352,6.70196 -9.85314,12.00134 -10.98074,19.00447 -1.78985,11.11611 3.66907,31.75151 1.87639,32.78692 -4.42638,2.55655 -6.63808,1.9085 -11.43744,1.0935 -0.31474,1.66759 -0.4719,3.6574 -0.58631,5.3751 -0.1658,3.0133 -0.6371,5.29987 -3.39337,4.50985 -0.37686,1.85143 -1.817,3.70286 -4.05655,5.5543 0,0 -3.31003,3.39354 -3.92496,5.58401 -1.26858,4.51867 -0.15475,12.87928 -4.06841,13.90004 z"
           id="path837"
           inkscape:connector-curvature="0"
           sodipodi:nodetypes="ssssssssssccccss" />
        <path
           style="opacity:1;fill:#d33834;fill-opacity:1;stroke:none;stroke-width:0.87845892px;stroke-linecap:butt;stroke-linejoin:miter;stroke-opacity:1"
           d="m 433.77854,497.98395 c 0,0 1.16205,5.9054 2.61802,8.67706 2.05146,3.90523 5.40311,5.85545 8.49026,6.49996 1.98104,-1.72362 3.26252,-3.44763 3.61335,-5.17125 l -11.16261,-7.06198 z"
           id="path861"
           inkscape:connector-curvature="0"
           sodipodi:nodetypes="cscccc" />
        <path
           style="opacity:1;fill:#ffe7ce;fill-opacity:1;stroke:none;stroke-width:0.87845892px;stroke-linecap:butt;stroke-linejoin:miter;stroke-opacity:1"
           d="m 477.18564,414.63116 -72.47802,1.72775 -1.92676,16.76794 4.11548,4.15505 c 0,0 6.76907,-7.03895 12.14058,-8.5032 7.76443,-2.11656 15.63298,-2.40799 23.68064,-2.37116 8.92607,0.0408 20.42346,0.4993 24.64317,-0.39117 3.81523,-0.80515 9.91657,-2.87991 10.76113,-6.76347 -0.009,-0.98407 -0.20617,-0.93549 -0.28081,-1.91601 -0.041,-0.53743 -0.45089,-1.05462 -0.51302,-1.5905 -0.0429,-0.37002 -0.0953,-0.74354 -0.14238,-1.11523 z"
           id="path1069"
           inkscape:connector-curvature="0"
           sodipodi:nodetypes="ccccssscccc" />
        <path
           style="opacity:1;fill:#ffe7ce;fill-opacity:1;stroke:none;stroke-width:0.87845892px;stroke-linecap:butt;stroke-linejoin:miter;stroke-opacity:1"
           d="m 386.31147,466.96809 -21.39872,26.87021 c 0.18229,0.21574 0.36525,0.43651 0.54733,0.65199 -5.05084,18.79894 -16.97975,31.45789 -28.08496,44.85115 l 5.75974,4.40602 c 15.37602,-18.98355 25.17028,-34.33117 27.10011,-44.55433 5.03193,-1.78938 14.69885,-12.78033 20.9492,-26.07239 z"
           id="path1074"
           inkscape:connector-curvature="0" />
        <path
           style="opacity:1;fill:#704931;fill-opacity:1;stroke:none;stroke-width:0.87845892px;stroke-linecap:butt;stroke-linejoin:miter;stroke-opacity:1"
           d="m 404.65273,360.20275 c -10.45545,0.1169 -20.89962,1.93184 -30.67744,5.41486 -23.54894,8.38851 -45.03685,30.94809 -46.37131,55.91083 -1.47512,27.59402 18.99205,50.97585 37.8252,73.02877 15.1754,-12.28704 25.10958,-28.62035 31.98313,-50.72416 12.26145,-39.43002 70.39969,-10.9587 80.42702,-26.47386 -0.0412,-0.54463 -0.0897,-1.08861 -0.15268,-1.63167 -1.4751,-12.72397 -5.06036,-27.4087 -17.58805,-37.41514 -15.48298,-12.36692 -35.48546,-18.33268 -55.44585,-18.10963 z"
           id="path839"
           inkscape:connector-curvature="0" />
        <path
           style="fill:#b62b27;fill-opacity:1;stroke:none;stroke-width:0.87845892px;stroke-linecap:butt;stroke-linejoin:miter;stroke-opacity:1"
           d="M 448.50017,507.98972 432.0222,495.46653 c 2.83056,4.16156 7.20443,10.88553 16.37227,13.06669 z"
           id="path1105"
           inkscape:connector-curvature="0"
           sodipodi:nodetypes="cccc" />
        <path
           style="opacity:1;fill:#d33834;fill-opacity:1;stroke:none;stroke-width:0.87845892px;stroke-linecap:butt;stroke-linejoin:miter;stroke-opacity:1"
           d="m 430.19949,492.33512 c 3.18089,6.84091 9.71608,13.54989 18.3025,15.65334 2.75388,0.78935 3.22574,-1.49119 3.39193,-4.50061 -1.54782,-1.03709 -3.60807,-0.96013 -6.11426,-0.81597 -2.62674,0.15119 -11.37633,-4.45698 -15.58017,-10.33676 z"
           id="path857"
           inkscape:connector-curvature="0" />
        <path
           style="fill:#ffe7ce;fill-opacity:1;stroke:none;stroke-width:0.87845892px;stroke-linecap:butt;stroke-linejoin:miter;stroke-opacity:1"
           d="m 435.87425,446.90708 c -0.18135,-5.58678 2.78734,-10.98774 8.18601,-12.40484 6.22049,-1.49494 12.47541,-1.42787 18.85625,-0.96491 4.02691,0.29218 7.40777,0.34672 9.6213,-0.24255 -0.12627,1.4493 -1.24669,3.89367 -1.79148,5.41272 l -2.34767,1.76708 -15.64753,-0.43923 -10.92585,0.71374 z"
           id="path1084"
           inkscape:connector-curvature="0"
           sodipodi:nodetypes="ccscccccc" />
        <path
           style="opacity:1;fill:#382f29;fill-opacity:1;stroke:none;stroke-width:0.87845892px;stroke-linecap:butt;stroke-linejoin:miter;stroke-opacity:1"
           d="m 435.83285,447.04427 c 0.56633,-3.40508 6.79765,-9.38864 13.21152,-9.33768 7.12953,0.0566 22.11175,1.27404 22.11175,0.0393 l -1.70828,4.86151 c 0,0.81211 -12.79287,0.88393 -19.53842,-0.2768 -5.30313,-0.91253 -11.7089,2.2908 -14.07657,4.71363 z"
           id="path863"
           inkscape:connector-curvature="0"
           sodipodi:nodetypes="csccsc" />
        <path
           style="opacity:1;fill:#382f29;fill-opacity:1;stroke:none;stroke-width:0.87845892px;stroke-linecap:butt;stroke-linejoin:miter;stroke-opacity:1"
           d="m 444.03581,455.98917 c 5.78741,2.0572 11.48797,3.77189 17.8437,3.12953 -0.16261,1.63344 -0.96659,2.9238 -2.17353,4.33739 -6.7313,0.45811 -12.63001,-1.2078 -15.67017,-7.46692 z"
           id="path865"
           inkscape:connector-curvature="0"
           sodipodi:nodetypes="cccc" />
        <path
           style="opacity:1;fill:#503323;fill-opacity:1;stroke:none;stroke-width:0.87845892px;stroke-linecap:butt;stroke-linejoin:miter;stroke-opacity:1"
           d="m 362.52625,451.54102 c -2.95348,8.93074 -1.62248,26.57949 6.12665,38.67962 0.56381,-0.52912 2.04814,-1.65057 2.59601,-2.19341 -8.16593,-12.9774 -8.72266,-36.48621 -8.72266,-36.48621 z"
           id="path867"
           inkscape:connector-curvature="0"
           sodipodi:nodetypes="cccc" />
        <path
           style="opacity:1;fill:#503323;fill-opacity:1;stroke:none;stroke-width:1.01712584px;stroke-linecap:butt;stroke-linejoin:miter;stroke-opacity:1"
           d="m 347.43683,440.23465 c -3.08739,7.07529 -4.05818,16.53655 -0.89243,31.75797 0.9452,1.26728 3.07261,4.08023 4.05058,5.3344 -2.14397,-6.40688 -4.3803,-23.50904 -3.15815,-37.09237 z"
           id="path867-3"
           inkscape:connector-curvature="0"
           sodipodi:nodetypes="cccc" />
        <path
           style="opacity:1;fill:#905e3f;fill-opacity:1;stroke:none;stroke-width:0.87845892px;stroke-linecap:butt;stroke-linejoin:miter;stroke-opacity:1"
           d="m 404.65273,360.20275 c -10.45545,0.1169 -20.89962,1.93184 -30.67744,5.41486 -23.54894,8.38851 -45.03685,30.94809 -46.37131,55.91083 -0.85554,16.00394 5.67523,30.59003 14.98185,44.32272 -6.66752,-11.70499 -10.87809,-24.05383 -10.16748,-37.34653 1.38141,-25.84139 23.62513,-49.19501 48.00297,-57.87877 10.12199,-3.60562 20.93487,-5.48438 31.75835,-5.60533 14.73143,-0.16468 29.4738,2.94701 42.53835,9.37481 -14.59484,-9.70558 -32.34526,-14.39059 -50.06529,-14.19259 z"
           id="path998"
           inkscape:connector-curvature="0" />
        <path
           style="opacity:1;fill:#382f29;fill-opacity:1;stroke:none;stroke-width:0.87845892px;stroke-linecap:butt;stroke-linejoin:miter;stroke-opacity:1"
           d="m 477.47916,413.81453 c -1.17548,1.08404 -3.98953,2.15873 -6.07516,2.62632 -14.25768,3.19659 -33.7813,-1.86136 -48.26034,0.54905 -8.04727,1.33966 -18.17962,5.83014 -22.20858,9.68893 -9.8309,9.41573 -8.70014,19.31585 -13.41366,29.68229 -4.60571,10.1294 -7.66887,14.36228 -12.0111,20.51358 -3.83751,5.43629 -12.86012,12.93328 -13.82488,13.9137 0.18697,0.21878 3.55715,3.55029 3.74374,3.76881 15.1754,-12.28704 25.10958,-28.62035 31.98313,-50.72416 12.26145,-39.43002 70.39969,-10.9587 80.42702,-26.47386 0.0751,-0.20306 -0.34016,-3.32905 -0.36017,-3.54466 z"
           id="path886"
           inkscape:connector-curvature="0"
           sodipodi:nodetypes="ccscccccscc" />
        <path
           style="color:#000000;font-style:normal;font-variant:normal;font-weight:normal;font-stretch:normal;font-size:medium;line-height:normal;font-family:sans-serif;font-variant-ligatures:normal;font-variant-position:normal;font-variant-caps:normal;font-variant-numeric:normal;font-variant-alternates:normal;font-feature-settings:normal;text-indent:0;text-align:start;text-decoration:none;text-decoration-line:none;text-decoration-style:solid;text-decoration-color:#000000;letter-spacing:normal;word-spacing:normal;text-transform:none;writing-mode:lr-tb;direction:ltr;text-orientation:mixed;dominant-baseline:auto;baseline-shift:baseline;text-anchor:start;white-space:normal;shape-padding:0;clip-rule:nonzero;display:inline;overflow:visible;visibility:visible;opacity:1;isolation:auto;mix-blend-mode:normal;color-interpolation:sRGB;color-interpolation-filters:linearRGB;solid-color:#000000;solid-opacity:1;vector-effect:none;fill:#382f29;fill-opacity:1;fill-rule:nonzero;stroke:none;stroke-width:10.04746914;stroke-linecap:butt;stroke-linejoin:miter;stroke-miterlimit:4;stroke-dasharray:none;stroke-dashoffset:0;stroke-opacity:1;color-rendering:auto;image-rendering:auto;shape-rendering:auto;text-rendering:auto;enable-background:accumulate"
           d="m 394.02259,419.68493 c -1.17714,-0.0794 -2.41659,0.0457 -3.71392,0.45006 -4.31754,1.34575 -7.49633,4.35532 -9.88306,7.6291 -2.38673,3.27377 -4.02197,6.90444 -4.81164,10.43191 -1.58671,7.08785 -1.874,15.11498 0.95135,22.51771 0.85261,2.23395 1.87953,4.92045 3.70294,7.52299 1.82341,2.60253 4.65522,5.12545 8.4597,6.27523 29.28914,0.62142 -19.32441,-50.81457 17.58899,-44.93658 0.0862,-2.55825 0.43596,0.18079 -0.42444,-1.30628 -0.86041,-1.48711 -1.97066,-2.92313 -3.3407,-4.25545 -2.05507,-1.99852 -4.9978,-4.09031 -8.52922,-4.32865 z"
           id="path918"
           inkscape:connector-curvature="0"
           sodipodi:nodetypes="ccscscccsccc" />
        <path
           sodipodi:nodetypes="csssscc"
           inkscape:connector-curvature="0"
           id="path936"
           d="m 398.65814,466.1356 c 0,0 -5.02867,4.61084 -8.47621,3.56891 -5.23638,-1.58254 -7.25897,-6.42298 -8.92231,-10.78112 -2.33476,-6.11732 -2.17392,-13.23951 -0.74352,-19.62909 1.22587,-5.47601 5.59626,-12.58879 11.28574,-14.36218 5.01565,-1.56336 10.75559,5.87756 10.66679,8.51424 z"
           style="fill:#f2d7bc;fill-opacity:1;stroke:none;stroke-width:0.84120399px;stroke-linecap:butt;stroke-linejoin:miter;stroke-opacity:1" />
        <path
           style="fill:#ffe7ce;fill-opacity:1;stroke:none;stroke-width:0.84120399px;stroke-linecap:butt;stroke-linejoin:miter;stroke-opacity:1"
           d="m 392.74924,424.74172 c -0.31753,0.0307 -0.63422,0.0926 -0.9477,0.19027 -0.35557,0.11091 -0.70529,0.24433 -1.05013,0.39518 -0.6897,0.3017 -1.35649,0.67835 -1.99784,1.11965 -4.16865,2.86846 -7.24046,8.39764 -8.23648,12.8469 -0.17873,0.7987 -0.33894,1.60774 -0.47568,2.42594 -2.1e-4,0.001 2e-4,0.002 0,0.004 -0.95648,5.72638 -0.82403,11.8496 1.21845,17.20113 0.23057,0.60411 0.5018,1.21685 0.75378,1.82952 l 4.93603,4.36158 c -0.56265,-1.23806 -1.03411,-2.52682 -1.47094,-3.77979 -2.03685,-5.8426 -1.03108,-12.69623 -0.0987,-18.85501 0.84986,-5.61442 4.11086,-11.25561 9.07441,-12.94933 1.25244,-0.42739 2.88513,-0.87967 4.26278,-0.31834 l -1.0355,-2.73696 c -1.52162,-1.1353 -3.23757,-1.89844 -4.9324,-1.73438 z"
           id="path1047"
           inkscape:connector-curvature="0" />
        <path
           style="fill:#382f29;fill-opacity:1;stroke:none;stroke-width:0.87845892px;stroke-linecap:butt;stroke-linejoin:miter;stroke-opacity:1"
           d="m 387.39534,439.25145 c 0,0 4.07712,-4.89299 6.75516,-4.50343 6.53809,0.95108 8.66288,14.1993 8.61867,14.20913 0,0 -5.06631,-8.39259 -9.31747,-10.09393 -1.87811,-0.75162 -6.05636,0.38823 -6.05636,0.38823 z"
           id="path932"
           inkscape:connector-curvature="0"
           sodipodi:nodetypes="cscsc" />
        <path
           style="fill:#a7a7a7;fill-opacity:1;stroke:none;stroke-width:0.87845892px;stroke-linecap:butt;stroke-linejoin:miter;stroke-opacity:1"
           d="m 388.79297,446.70543 c 0.61508,-2.31149 3.43208,-4.24654 5.82342,-4.19287 3.46323,0.0777 7.21468,3.10991 8.15278,6.44459 0.49887,1.77337 -1.91289,5.18503 -1.91289,5.18503 l 7.96924,9.95584 c -0.40544,1.10736 -1.09835,1.77474 -2.32936,1.78585 l -8.02023,-9.94252 c 0,0 -3.46378,1.7384 -5.02423,1.01329 -3.40329,-1.58147 -5.62377,-6.62263 -4.65873,-10.24921 z"
           id="path934"
           inkscape:connector-curvature="0"
           sodipodi:nodetypes="sssccccss" />
        <path
           style="opacity:1;fill:#503323;fill-opacity:1;stroke:none;stroke-width:0.87845892px;stroke-linecap:butt;stroke-linejoin:miter;stroke-opacity:1"
           d="m 462.71411,390.94555 c 0.0659,0.19771 -3.65853,1.32217 -7.48346,1.59639 -17.46308,1.25197 -28.48428,-1.67588 -44.59577,0.96299 -10.08835,1.65235 -20.40053,7.07275 -25.00555,16.65694 7.68652,-7.78742 15.54128,-12.31564 25.48397,-13.74567 16.19364,-2.32906 29.04001,1.41796 45.54662,-1.97169 4.31225,-0.88551 6.05419,-3.49896 6.05419,-3.49896 z"
           id="path938"
           inkscape:connector-curvature="0"
           sodipodi:nodetypes="csscssc" />
        <path
           sodipodi:nodetypes="cscscc"
           inkscape:connector-curvature="0"
           id="path942"
           d="m 451.06924,379.85528 c -14.33932,-7.2094 -40.03821,-4.77096 -54.49718,-1.21213 -9.92651,2.44325 -18.79759,6.74284 -25.24323,17.30687 7.53528,-7.93387 15.5468,-11.50728 25.21479,-14.23342 21.76828,-6.13815 47.95411,-3.65513 54.52562,-1.86128 z"
           style="opacity:1;fill:#503323;fill-opacity:1;stroke:none;stroke-width:0.87845892px;stroke-linecap:butt;stroke-linejoin:miter;stroke-opacity:1" />
        <path
           style="opacity:1;fill:#905e3f;fill-opacity:1;stroke:none;stroke-width:0.87845892px;stroke-linecap:butt;stroke-linejoin:miter;stroke-opacity:1"
           d="m 313.08882,419.60681 c -9.30248,0.23201 -31.32042,11.47038 -31.05833,30.74777 0.0798,5.87173 1.17134,11.01689 2.56847,15.89805 -0.72331,-3.63034 -1.20334,-7.4458 -1.25935,-11.56581 -0.25087,-18.45061 16.86159,-30.63373 29.12984,-34.66995 0.33997,-0.23047 0.61937,-0.41006 0.61937,-0.41006 z"
           id="path1034"
           inkscape:connector-curvature="0"
           sodipodi:nodetypes="cscscc" />
        <path
           style="opacity:1;fill:#905e3f;fill-opacity:1;stroke:none;stroke-width:0.87845892px;stroke-linecap:butt;stroke-linejoin:miter;stroke-opacity:1"
           d="m 298.01433,417.38322 c -13.11639,0.0766 -29.32706,4.23975 -39.11373,14.66785 -27.964,29.79683 -16.60607,47.94918 -28.65972,71.37479 -9.15817,17.7984 -29.21853,33.69205 -48.20543,26.46358 0.82186,1.00738 1.85127,1.91953 3.02656,2.74174 19.2306,6.81547 39.42453,-9.11879 48.691,-26.95771 12.31072,-23.69945 0.71179,-42.06346 29.27224,-72.20862 12.48808,-13.181 35.2093,-16.46248 49.22115,-14.15486 -3.71788,-1.2599 -8.69508,-1.95914 -14.23207,-1.92677 z"
           id="path1029"
           inkscape:connector-curvature="0" />
        <path
           sodipodi:nodetypes="sssss"
           inkscape:connector-curvature="0"
           id="path937"
           d="m 312.48464,419.44244 c 1.54616,-5.93963 6.27725,-13.32393 12.4102,-13.96464 5.73649,-0.59929 6.83602,7.96546 6.259,12.62783 -0.88646,7.16301 -5.20398,17.11989 -13.5063,15.70247 -5.6751,-0.9689 -6.27596,-10.08987 -5.1629,-14.36566 z"
           style="opacity:1;fill:none;fill-opacity:1;stroke:#382f29;stroke-width:17.16353989;stroke-linecap:butt;stroke-linejoin:miter;stroke-miterlimit:4;stroke-dasharray:none;stroke-opacity:1" />
        <path
           style="opacity:1;fill:#d33834;fill-opacity:1;stroke:none;stroke-width:0.87845892px;stroke-linecap:butt;stroke-linejoin:miter;stroke-opacity:1"
           d="m 312.48464,419.44244 c 1.54616,-5.93963 6.27725,-13.32393 12.4102,-13.96464 5.73649,-0.59929 6.83602,7.96546 6.259,12.62783 -0.88646,7.16301 -5.20398,17.11989 -13.5063,15.70247 -5.6751,-0.9689 -6.27596,-10.08987 -5.1629,-14.36566 z"
           id="path855"
           inkscape:connector-curvature="0"
           sodipodi:nodetypes="sssss" />
        <path
           style="fill:#b62b27;fill-opacity:1;stroke:none;stroke-width:0.87845892px;stroke-linecap:butt;stroke-linejoin:miter;stroke-opacity:1"
           d="m 326.33041,410.29219 c -6.787,1.24287 -11.71587,13.28988 -6.16549,23.57151 0.006,6.2e-4 0.009,-6.2e-4 0.015,0 0.58657,-0.0682 1.15592,-0.17535 1.69412,-0.35859 -4.13347,-8.26532 -2.08288,-17.99747 4.45671,-23.21292 z"
           id="path946"
           inkscape:connector-curvature="0" />
        <path
           style="opacity:1;fill:#ef3c39;fill-opacity:1;stroke:none;stroke-width:0.87845892px;stroke-linecap:butt;stroke-linejoin:miter;stroke-opacity:1"
           d="m 325.41985,405.44852 c -0.1703,8.8e-4 -0.34574,0.0112 -0.52501,0.0292 -6.13295,0.64072 -10.86378,8.02481 -12.40996,13.96442 -0.58838,2.26027 -0.68743,5.86847 0.17835,8.9167 -0.0641,-1.9887 0.12889,-3.88202 0.49757,-5.2982 1.73309,-6.65769 7.03681,-14.93453 13.91122,-15.65271 0.82793,-0.0866 1.56778,2.1e-4 2.23045,0.22305 -0.90768,-1.32127 -2.16267,-2.19483 -3.88272,-2.18243 z"
           id="path1019"
           inkscape:connector-curvature="0" />
        <path
           style="opacity:1;fill:#905e3f;fill-opacity:1;stroke:none;stroke-width:0.87845892px;stroke-linecap:butt;stroke-linejoin:miter;stroke-opacity:1"
           d="m 269.73722,405.19632 c -8.38378,8.8e-4 -16.73107,1.68722 -24.31203,5.63105 -27.2782,14.19089 -25.8753,49.48824 -70.09314,72.68561 -20.38354,10.69352 -49.12968,5.22519 -58.41237,-7.42915 0.20953,1.16368 0.56068,2.32153 1.03631,3.46579 10.42849,11.74758 38.64115,17.26351 59.1347,7.02596 45.79667,-22.87774 43.56697,-59.39713 71.81915,-73.39249 17.22695,-8.53378 38.97714,-5.81423 56.21622,1.37429 -10.26126,-5.6013 -22.863,-9.36299 -35.38884,-9.36106 z"
           id="path1024"
           inkscape:connector-curvature="0" />
        <path
           style="opacity:1;fill:#905e3f;fill-opacity:1;stroke:none;stroke-width:0.87845892px;stroke-linecap:butt;stroke-linejoin:miter;stroke-opacity:1"
           d="m 290.36385,485.99737 c 1.17777,6.00458 1.4461,12.49656 -0.4135,20.26289 -3.83543,16.0181 -18.81904,30.93609 -37.08057,31.83899 1.13082,0.44025 2.28462,0.80892 3.45035,1.13066 15.45824,-0.36458 29.03422,-11.53721 33.74002,-24.59341 3.98706,-11.06202 2.42251,-19.64825 0.55077,-28.30628 z"
           id="path1039"
           inkscape:connector-curvature="0" />
        <path
           style="fill:#c6c6c6;fill-opacity:1;stroke:none;stroke-width:0.87845892px;stroke-linecap:butt;stroke-linejoin:miter;stroke-opacity:1"
           d="m 394.61564,442.51193 c -2.39132,-0.0536 -5.20813,1.88178 -5.82321,4.19327 -0.54468,2.04689 -0.0731,4.54415 1.05174,6.6159 -0.25278,-1.47746 -0.24165,-2.95352 0.11147,-4.28077 0.78845,-2.96297 4.39815,-5.44249 7.46347,-5.3737 0.39151,0.009 0.7859,0.0564 1.18043,0.12178 -1.25052,-0.76642 -2.63861,-1.2463 -3.98396,-1.27652 z"
           id="path1058"
           inkscape:connector-curvature="0" />
        <path
           style="opacity:1;fill:#525252;fill-opacity:1;stroke:none;stroke-width:6.9415822;stroke-linecap:square;stroke-linejoin:miter;stroke-miterlimit:4;stroke-dasharray:none;stroke-dashoffset:0;stroke-opacity:1"
           d="m 397.14718,450.01583 c 0.63773,0.92714 1.25821,1.90123 2.14676,2.78181 0.29731,0.38529 0.2265,0.93482 -0.15887,1.23214 l -0.30426,0.23481 c -0.38529,0.29731 -0.93482,0.2265 -1.23215,-0.15887 -0.74002,-0.80504 -1.45845,-1.71812 -2.14674,-2.78181 -0.29734,-0.38529 -0.22652,-0.93482 0.15868,-1.23213 l 0.30426,-0.23482 c 0.38529,-0.29731 0.93482,-0.22652 1.23213,0.15887 z"
           id="rect1061"
           inkscape:connector-curvature="0"
           sodipodi:nodetypes="ccccccccc" />
        <path
           style="fill:#525252;fill-opacity:1;stroke:none;stroke-width:0.87845892px;stroke-linecap:butt;stroke-linejoin:miter;stroke-opacity:1"
           d="m 408.30381,463.44568 c -0.42995,1.07221 -1.13142,1.73884 -2.30079,1.82726 l 0.49241,0.61081 c 1.23103,-0.0112 1.92453,-0.67872 2.32998,-1.78608 z"
           id="path1066"
           inkscape:connector-curvature="0"
           sodipodi:nodetypes="ccccc" />
        <path
           style="fill:#ffe7ce;fill-opacity:1;stroke:none;stroke-width:0.80813402px;stroke-linecap:butt;stroke-linejoin:miter;stroke-opacity:1"
           d="m 444.20008,454.98994 c 3.87355,-4.28801 8.65952,-6.60205 16.42544,-6.57177 -0.27961,9.17973 -9.87591,7.97282 -16.42544,6.57174 z"
           id="path1086"
           inkscape:connector-curvature="0"
           sodipodi:nodetypes="cccc" />
        <path
           sodipodi:nodetypes="cccc"
           inkscape:connector-curvature="0"
           id="path1088"
           d="m 450.39574,496.84723 c -0.87631,-3.38186 0.91418,-6.13328 6.25684,-4.04215 -3.05363,-0.95677 -5.55481,0.79771 -5.07753,5.15453 -0.27184,-0.2743 -0.90747,-0.83807 -1.17931,-1.11238 z"
           style="fill:#ffe7ce;fill-opacity:1;stroke:none;stroke-width:0.49201155px;stroke-linecap:butt;stroke-linejoin:miter;stroke-opacity:1" />
        <path
           sodipodi:nodetypes="ccccc"
           inkscape:connector-curvature="0"
           id="path883"
           d="m 336.53753,536.5413 c 20.44139,18.84791 39.0368,31.71682 58.38943,39.9098 13.61399,22.10663 24.4539,53.72575 14.90795,79.66434 -57.51636,-4.23005 -90.86634,-69.1406 -113.51778,-112.89661 12.96773,-4.0351 26.04474,-5.86354 40.2204,-6.67753 z"
           style="opacity:1;fill:none;fill-opacity:1;stroke:#382f29;stroke-width:17.16353989;stroke-linecap:butt;stroke-linejoin:miter;stroke-miterlimit:4;stroke-dasharray:none;stroke-opacity:1" />
        <path
           style="opacity:1;fill:#d33834;fill-opacity:1;stroke:none;stroke-width:0.87845892px;stroke-linecap:butt;stroke-linejoin:miter;stroke-opacity:1"
           d="m 336.53753,536.5413 c 20.44139,18.84791 39.0368,31.71682 58.38943,39.9098 13.61399,22.10663 24.4539,53.72575 14.90795,79.66434 -57.51636,-4.23005 -90.86634,-69.1406 -113.51778,-112.89661 12.96773,-4.0351 26.04474,-5.86354 40.2204,-6.67753 z"
           id="path1107"
           inkscape:connector-curvature="0"
           sodipodi:nodetypes="ccccc" />
        <path
           style="opacity:1;fill:#ef3c39;fill-opacity:1;stroke:none;stroke-width:0.87845892px;stroke-linecap:butt;stroke-linejoin:miter;stroke-opacity:1"
           d="m 336.53785,536.54136 c -14.17566,0.81399 -27.25265,2.64256 -40.22038,6.67766 1.08552,2.09691 2.21814,4.27985 3.35426,6.4649 13.4383,-4.57697 27.13123,-7.05282 41.93784,-8.56668 -1.68041,-1.48932 -3.36715,-3.00417 -5.07172,-4.57588 z"
           id="path1126"
           inkscape:connector-curvature="0"
           sodipodi:nodetypes="ccccc" />
      </g>
      <g
         id="text1388"
         style="font-style:normal;font-variant:normal;font-weight:normal;font-stretch:normal;font-size:205.12121582px;line-height:1.25;font-family:Manjari;-inkscape-font-specification:'Manjari, Normal';font-variant-ligatures:normal;font-variant-caps:normal;font-variant-numeric:normal;font-feature-settings:normal;text-align:start;letter-spacing:0px;word-spacing:0px;writing-mode:lr-tb;text-anchor:start;fill:#382f29;fill-opacity:1;stroke:none;stroke-width:5.12808466"
         aria-label="Ruthie">
        <path
           id="path933"
           style="font-style:normal;font-variant:normal;font-weight:normal;font-stretch:normal;font-size:205.12121582px;font-family:Manjari;-inkscape-font-specification:'Manjari, Normal';font-variant-ligatures:normal;font-variant-caps:normal;font-variant-numeric:normal;font-feature-settings:normal;text-align:start;letter-spacing:-5.07664156px;writing-mode:lr-tb;text-anchor:start;stroke-width:5.12808466"
           d="m 242.58157,853.42416 c 0,-2.60408 -1.4022,-4.90769 -3.20502,-6.20973 -12.61977,-9.11427 -18.92965,-20.93278 -26.64172,-35.75599 -3.00471,-5.8091 -6.00941,-10.11584 -8.91396,-13.02039 15.72462,-5.00784 29.94689,-17.82792 29.94689,-37.85928 0,-28.54471 -23.53686,-41.46494 -57.38987,-41.46494 h -2.30361 l -26.64172,0.10016 c -4.00627,0.10016 -7.4116,3.30517 -7.4116,7.51176 l 0.30047,125.19606 c 0,4.10643 3.40533,7.61192 7.51176,7.61192 4.00628,0 7.51176,-3.50549 7.51176,-7.51177 v -0.20031 l -0.10015,-51.38046 11.61819,0.10016 c 20.03137,0.20031 28.04392,6.41003 36.55725,24.73874 6.00941,13.02039 14.72306,24.43827 26.44141,32.85144 1.00156,0.7011 3.50549,2.40377 6.20972,2.40377 2.90455,0 6.5102,-3.20502 6.5102,-7.11114 z m -65.70289,-119.2868 c 23.03607,0 42.06587,6.41004 42.06587,25.94062 0,18.92964 -17.32713,26.34125 -41.86556,26.54156 l -20.53215,0.20032 c -0.40063,0 -0.80126,0 -1.30204,0.10015 l -0.20032,-52.78265 z" />
        <path
           id="path935"
           style="font-style:normal;font-variant:normal;font-weight:normal;font-stretch:normal;font-size:205.12121582px;font-family:Manjari;-inkscape-font-specification:'Manjari, Normal';font-variant-ligatures:normal;font-variant-caps:normal;font-variant-numeric:normal;font-feature-settings:normal;text-align:start;letter-spacing:-5.07664156px;writing-mode:lr-tb;text-anchor:start;stroke-width:5.12808466"
           d="m 334.85738,860.73561 c 4.30674,0 7.51176,-3.40533 7.51176,-7.61192 l -0.10016,-89.94085 c 0,-4.20658 -3.30517,-7.61192 -7.51176,-7.61192 -4.10643,0 -7.51176,3.40534 -7.51176,7.51177 v 49.07685 c 0,21.13309 -11.21757,33.25207 -32.95161,33.25207 -17.32713,0 -21.73403,-15.82478 -21.73403,-33.55254 l 0.10016,-48.47591 c 0,-4.20659 -3.30518,-7.61192 -7.51177,-7.61192 -4.10643,0 -7.51176,3.40533 -7.51176,7.51176 l -0.10016,48.57607 c 0,25.53999 10.216,48.57607 36.75756,48.57607 15.324,0 25.94063,-10.41631 33.05176,-19.12996 l 0.50079,11.91867 c 0,4.10643 2.90455,7.51176 7.01098,7.51176 z" />
        <path
           id="path939"
           style="font-style:normal;font-variant:normal;font-weight:normal;font-stretch:normal;font-size:205.12121582px;font-family:Manjari;-inkscape-font-specification:'Manjari, Normal';font-variant-ligatures:normal;font-variant-caps:normal;font-variant-numeric:normal;font-feature-settings:normal;text-align:start;letter-spacing:-5.07664156px;writing-mode:lr-tb;text-anchor:start;stroke-width:5.12808466"
           d="m 376.85446,734.53799 -0.10016,22.53529 h -15.42415 c -3.90612,0 -7.01098,3.10486 -7.01098,7.01097 0,3.90612 3.10486,7.01098 7.01098,7.01098 h 15.42415 l -0.10016,62.1974 c 0,16.0251 7.91239,27.14251 23.73718,27.14251 7.51176,0 20.73246,-2.50392 20.73246,-10.9171 0,-4.10643 -3.40533,-7.51176 -7.51176,-7.51176 -5.00784,0 -8.01255,3.30517 -13.82165,3.30517 -6.61035,0 -8.1127,-4.70737 -8.1127,-11.8185 l 0.10016,-62.49787 19.53058,0.10015 c 3.90612,0 7.01098,-3.10486 7.01098,-7.01098 0,-3.90611 -3.10486,-7.01097 -7.01098,-7.01097 l -19.53058,-0.10016 0.10015,-22.43513 c 0,-4.10643 -3.40533,-7.51177 -7.51176,-7.51177 -4.20659,0 -7.51176,3.40534 -7.51176,7.51177 z" />
        <path
           id="path941"
           style="font-style:normal;font-variant:normal;font-weight:normal;font-stretch:normal;font-size:205.12121582px;font-family:Manjari;-inkscape-font-specification:'Manjari, Normal';font-variant-ligatures:normal;font-variant-caps:normal;font-variant-numeric:normal;font-feature-settings:normal;text-align:start;letter-spacing:-5.07664156px;writing-mode:lr-tb;text-anchor:start;stroke-width:5.12808466"
           d="m 433.07381,727.12638 v 125.89715 c 0,3.90612 3.30518,7.51177 7.71208,7.51177 4.10643,0 7.51176,-3.40534 7.51176,-7.51177 v -56.68877 c 0,-12.41945 11.6182,-26.04078 30.24737,-26.04078 19.63074,0 24.8389,13.2207 24.8389,35.05489 l -0.10016,47.47435 v 0.10015 c 0,4.10644 3.40533,7.51177 7.51176,7.51177 4.10644,0 7.51177,-3.40533 7.51177,-7.51177 v -0.10015 l 0.10015,-47.27403 v -0.90141 c 0,-30.04706 -11.31772,-49.27717 -41.0643,-49.27717 -10.71678,0 -22.63545,6.81066 -29.2458,17.82792 v -46.07215 c 0,-4.10643 -3.40533,-7.51176 -7.51176,-7.51176 -4.20659,0 -7.51177,3.40533 -7.51177,7.51176 z" />
        <path
           id="path943"
           style="font-style:normal;font-variant:normal;font-weight:normal;font-stretch:normal;font-size:205.12121582px;font-family:Manjari;-inkscape-font-specification:'Manjari, Normal';font-variant-ligatures:normal;font-variant-caps:normal;font-variant-numeric:normal;font-feature-settings:normal;text-align:start;letter-spacing:-5.07664156px;writing-mode:lr-tb;text-anchor:start;stroke-width:5.12808466"
           d="m 546.18223,740.24693 c 5.8091,0 10.81694,-4.70738 10.81694,-10.61663 0,-5.90925 -5.00784,-10.61663 -10.81694,-10.61663 -5.80909,0 -10.81694,4.70738 -10.81694,10.61663 0,5.90925 5.00785,10.61663 10.81694,10.61663 z m -7.31145,21.73403 0.20032,90.84226 c 0,4.20659 3.30517,7.61192 7.51176,7.61192 4.10643,0 7.51176,-3.40533 7.51176,-7.51177 l -0.20031,-89.84068 c 0,-4.50706 -3.40533,-7.61192 -8.1127,-7.61192 -2.8044,0 -6.91083,3.0047 -6.91083,6.51019 z" />
        <path
           id="path945"
           style="font-style:normal;font-variant:normal;font-weight:normal;font-stretch:normal;font-size:205.12121582px;font-family:Manjari;-inkscape-font-specification:'Manjari, Normal';font-variant-ligatures:normal;font-variant-caps:normal;font-variant-numeric:normal;font-feature-settings:normal;text-align:start;letter-spacing:-5.07664156px;writing-mode:lr-tb;text-anchor:start;stroke-width:5.12808466"
           d="m 625.83827,860.13467 c 15.12369,0 29.84674,-6.81067 39.4618,-18.62918 1.00157,-1.20188 1.80282,-3.40533 1.80282,-4.90768 0,-4.10643 -3.40533,-7.51176 -7.51176,-7.51176 -2.00314,0 -4.70737,1.30204 -5.90925,2.90454 -6.61035,8.11271 -17.52745,13.12055 -28.04392,13.12055 -18.62917,0 -32.85144,-14.42258 -35.95631,-31.04862 h 72.91419 c 5.90925,0 7.71207,-5.00784 7.71207,-11.21757 0,-26.04078 -21.53372,-46.97356 -46.97356,-46.97356 -27.64329,0 -49.37732,23.83733 -49.37732,51.28031 0,28.84517 22.83576,52.98297 51.88124,52.98297 z m 29.14565,-60.89536 h -65.10195 c 3.30517,-15.324 16.42572,-28.34439 33.55254,-28.34439 16.42572,0 29.64643,12.71992 31.54941,28.34439 z" />
      </g>
    </g>
  </g>
</svg>
